<svg xmlns="http://www.w3.org/2000/svg" xmlns:xlink="http://www.w3.org/1999/xlink" width="50" height="50" viewBox="0 0 50 50">
  <defs>
    <clipPath id="clip-path">
      <rect id="Icon" width="50" height="50" transform="translate(294.723 2913)" fill="#8d8d8d" stroke="#707070" stroke-linejoin="round" stroke-width="1"/>
    </clipPath>
  </defs>
  <g id="Gruppe_maskieren_1" data-name="Gruppe maskieren 1" transform="translate(-294.723 -2913)" clip-path="url(#clip-path)">
    <g id="bike" transform="translate(295 2923.036)">
      <g id="_x31_9_65_" transform="translate(0 0)">
        <path id="Pfad_1" data-name="Pfad 1" d="M40.408,23.364a9.078,9.078,0,0,0-3,.519l-.205.072-3.305-6V15.342h3.96a1.38,1.38,0,0,0,0-2.76H32.608a1.375,1.375,0,0,0-1.335,1.725l.008.031v2.641H19.241l-.991-2.208h2.868a1.307,1.307,0,0,0,0-2.614H11.342a1.307,1.307,0,1,0,0,2.614h4.043l.873,1.979-3.922,7.207-.206-.072a9.123,9.123,0,1,0,5.987,10.13l.036-.214h3.885l.074.071a3.179,3.179,0,0,0,5.239-3.2l-.03-.1L32.588,21l2.323,4.221-.17.135a9.113,9.113,0,1,0,5.667-1.987Zm-27.06,4.168.241.228a6.505,6.505,0,0,1,1.837,3.1l.083.321H11.339Zm2.078,6.589a6.532,6.532,0,1,1-4.688-7.934l.322.082L7.983,31.862a.572.572,0,0,1-.027.061,1.092,1.092,0,0,0-.05.12,1.05,1.05,0,0,0-.039.123,1.1,1.1,0,0,0-.025.123.873.873,0,0,0-.013.133v.014c0,.017,0,.035-.006.052v.01c0,.015,0,.029,0,.044,0,.052.008.1.015.149s.012.075.022.115a1.169,1.169,0,0,0,.036.119,1.041,1.041,0,0,0,.048.121A1.117,1.117,0,0,0,8,33.149l.005.009a.883.883,0,0,0,.063.1,1.319,1.319,0,0,0,.084.1c.027.029.055.06.086.088s.066.056.1.083a1.08,1.08,0,0,0,.106.073l.015.009.031.023.009.007a.353.353,0,0,1,.061.026,1.052,1.052,0,0,0,.114.047,1.314,1.314,0,0,0,.129.041c.033.009.067.015.115.023a1.118,1.118,0,0,0,.147.015.369.369,0,0,1,.058.005H15.51Zm6.424-4.586a3.177,3.177,0,0,0-.676,1.439l-.039.21H18.152l-.036-.214a9.109,9.109,0,0,0-3.322-5.62l-.17-.135,3-5.451,4.328,9.648Zm3.577-.952-.2-.061a3.178,3.178,0,0,0-.718-.13l-.154-.01-3.942-8.79h9.963ZM40.408,39A6.521,6.521,0,0,1,33.9,32.491a6.448,6.448,0,0,1,2.05-4.731l.242-.228,3.077,5.589a1.306,1.306,0,0,0,1.146.676,1.306,1.306,0,0,0,1.254-.943,1.3,1.3,0,0,0-.111-1l-3.077-5.59.321-.082A6.51,6.51,0,1,1,40.408,39Z" transform="translate(0 -12.156)"/>
      </g>
    </g>
  </g>
</svg>
