<svg xmlns="http://www.w3.org/2000/svg" width="43.591" height="42.03" viewBox="0 0 43.591 42.03">
  <g id="public-transport-taxi-car-cab-svgrepo-com_1_" data-name="public-transport-taxi-car-cab-svgrepo-com (1)" transform="translate(-1.5 -2.5)">
    <path id="Pfad_2" data-name="Pfad 2" d="M40.469,30.612H6.122A3.132,3.132,0,0,1,3,27.49V21.245A6.263,6.263,0,0,1,9.245,15h28.1a6.263,6.263,0,0,1,6.245,6.245V27.49A3.132,3.132,0,0,1,40.469,30.612Z" transform="translate(0 6.173)" fill="none" stroke="#000" stroke-linecap="round" stroke-linejoin="round" stroke-miterlimit="10" stroke-width="3"/>
    <path id="Pfad_3" data-name="Pfad 3" d="M37.224,18.928H6l3.122-7.181A6.168,6.168,0,0,1,14.743,8H28.325A6.569,6.569,0,0,1,34.1,11.747Z" transform="translate(1.684 2.245)" fill="none" stroke="#000" stroke-linecap="round" stroke-linejoin="round" stroke-miterlimit="10" stroke-width="3"/>
    <path id="Pfad_4" data-name="Pfad 4" d="M13.367,25H4v3.122a3.132,3.132,0,0,0,3.122,3.122h3.122a3.132,3.132,0,0,0,3.122-3.122Z" transform="translate(0.561 11.785)" fill="none" stroke="#000" stroke-linecap="round" stroke-linejoin="round" stroke-miterlimit="10" stroke-width="3"/>
    <path id="Pfad_5" data-name="Pfad 5" d="M31.367,25H22v3.122a3.132,3.132,0,0,0,3.122,3.122h3.122a3.132,3.132,0,0,0,3.122-3.122Z" transform="translate(10.663 11.785)" fill="none" stroke="#000" stroke-linecap="round" stroke-linejoin="round" stroke-miterlimit="10" stroke-width="3"/>
    <path id="Pfad_6" data-name="Pfad 6" d="M3,14H8.308" transform="translate(0 5.612)" fill="none" stroke="#000" stroke-linecap="round" stroke-linejoin="round" stroke-miterlimit="10" stroke-width="3"/>
    <path id="Pfad_7" data-name="Pfad 7" d="M26,14h4.684" transform="translate(12.907 5.612)" fill="none" stroke="#000" stroke-linecap="round" stroke-linejoin="round" stroke-miterlimit="10" stroke-width="3"/>
    <path id="Pfad_8" data-name="Pfad 8" d="M26.612,27.245H11l2.186-4.527A2.949,2.949,0,0,1,16,21H21.46a2.949,2.949,0,0,1,2.81,1.717Z" transform="translate(4.49 9.54)" fill="none" stroke="#000" stroke-linecap="round" stroke-linejoin="round" stroke-miterlimit="10" stroke-width="3"/>
    <path id="Pfad_9" data-name="Pfad 9" d="M6,20h4.684" transform="translate(1.684 8.979)" fill="none" stroke="#000" stroke-linecap="round" stroke-linejoin="round" stroke-miterlimit="10" stroke-width="3"/>
    <path id="Pfad_10" data-name="Pfad 10" d="M23,20h4.684" transform="translate(11.224 8.979)" fill="none" stroke="#000" stroke-linecap="round" stroke-linejoin="round" stroke-miterlimit="10" stroke-width="3"/>
    <path id="Pfad_11" data-name="Pfad 11" d="M24.49,10.245H12l1.249-5A1.681,1.681,0,0,1,14.81,4h6.869a1.52,1.52,0,0,1,1.561,1.249Z" transform="translate(5.051)" fill="none" stroke="#000" stroke-linecap="round" stroke-linejoin="round" stroke-miterlimit="10" stroke-width="3"/>
  </g>
</svg>
