<svg xmlns="http://www.w3.org/2000/svg" xmlns:xlink="http://www.w3.org/1999/xlink" width="44" height="44" viewBox="0 0 44 44">
  <defs>
    <clipPath id="clip-path">
      <rect id="Icon" width="44" height="44" transform="translate(296.5 2741.5)" fill="#8d8d8d" stroke="#707070" stroke-width="1"/>
    </clipPath>
  </defs>
  <g id="Gruppe_maskieren_3" data-name="Gruppe maskieren 3" transform="translate(-296.5 -2741.5)" clip-path="url(#clip-path)">
    <path id="subway" d="M41.289,9.474a8.773,8.773,0,0,1,8.773,8.773V39.3A8.776,8.776,0,0,1,43.3,47.842l5.761,2.741a1.755,1.755,0,0,1-1.287,3.256l-.222-.088L35.627,48.074H27.063L15.14,53.752a1.755,1.755,0,1,1-1.509-3.168l5.76-2.742A8.776,8.776,0,0,1,12.631,39.3V18.246A8.773,8.773,0,0,1,21.4,9.474Zm5.263,25.733H16.14V39.3A5.264,5.264,0,0,0,21.4,44.565H41.289A5.264,5.264,0,0,0,46.553,39.3ZM21.989,37.546a2.339,2.339,0,1,1-2.339,2.339A2.339,2.339,0,0,1,21.989,37.546Zm18.715,0a2.339,2.339,0,1,1-2.339,2.339A2.339,2.339,0,0,1,40.7,37.546Zm.585-24.564H21.4a5.264,5.264,0,0,0-5.264,5.264V31.7H46.552V18.246A5.264,5.264,0,0,0,41.289,12.983Zm-7.018,3.509a1.755,1.755,0,1,1,0,3.509H28.422a1.755,1.755,0,1,1,0-3.509Z" transform="translate(286.929 2731.577)" fill="#212121"/>
  </g>
</svg>
